<svg width="496" height="800" viewBox="0 0 496 800" fill="none"
  xmlns="http://www.w3.org/2000/svg">
  <g clip-path="url(#clip0_660_1467)">
    <path d="M0 7.99999C0 3.58171 3.58172 0 8 0H496V800H7.99999C3.58171 800 0 796.418 0 792V7.99999Z" fill="#35475B"/>
    <g opacity="0.5">
      <line y1="-0.7" x2="176.572" y2="-0.7" transform="matrix(-0.0284263 -0.999596 0.999962 -0.00874249 253.97 179.07)" stroke="#3B7183" stroke-width="1.4"/>
      <line y1="-0.7" x2="200.453" y2="-0.7" transform="matrix(-0.972497 -0.232917 0.61456 -0.78887 479.851 140.067)" stroke="#3B7183" stroke-width="1.4"/>
      <line y1="-0.7" x2="225.74" y2="-0.7" transform="matrix(-0.751141 -0.660142 0.943913 -0.330195 454.474 242.399)" stroke="#3B7183" stroke-width="1.4"/>
      <line y1="-0.7" x2="51.8786" y2="-0.7" transform="matrix(-0.644798 -0.764353 0.967976 -0.251043 339.125 198.907)" stroke="#3B7183" stroke-width="1.4"/>
      <line y1="-0.7" x2="126.036" y2="-0.7" transform="matrix(0.713862 -0.700287 0.954236 0.299053 215.703 247.515)" stroke="url(#paint0_linear_660_1467)" stroke-width="1.4"/>
      <line y1="-0.7" x2="132.187" y2="-0.7" transform="matrix(0.933705 -0.358043 0.780209 0.625519 215.703 247.515)" stroke="url(#paint1_linear_660_1467)" stroke-width="1.4"/>
      <line y1="-0.7" x2="91.4108" y2="-0.7" transform="matrix(-0.113569 0.99353 -0.999383 -0.0351207 295.293 2.55835)" stroke="#3B7183" stroke-width="1.4"/>
      <line y1="-0.8" x2="277.06" y2="-0.8" transform="matrix(0.278943 0.960308 -0.996036 0.0889476 295.293 2.55835)" stroke="#459FBC" stroke-width="1.6"/>
      <line y1="-0.8" x2="211.149" y2="-0.8" transform="matrix(-0.289534 0.957168 -0.995704 -0.0925968 438.326 77.3882)" stroke="#467E91" stroke-width="1.6"/>
      <line y1="-0.8" x2="112.255" y2="-0.8" transform="matrix(-0.914528 0.404522 -0.821141 -0.570725 479.851 234.084)" stroke="#467E91" stroke-width="1.6"/>
      <line y1="-0.8" x2="102.944" y2="-0.8" transform="matrix(-0.997217 0.0745518 -0.236286 -0.971683 479.851 271.819)" stroke="#467E91" stroke-width="1.6"/>
      <line y1="-0.8" x2="114.14" y2="-0.8" transform="matrix(-0.899429 -0.437068 0.845075 -0.534648 479.851 329.38)" stroke="#467E91" stroke-width="1.6"/>
      <line y1="-0.8" x2="118.994" y2="-0.8" transform="matrix(-0.814271 -0.580485 0.918251 -0.395999 479.851 606.316)" stroke="#2D5664" stroke-width="1.6"/>
      <line y1="-0.8" x2="108.402" y2="-0.8" transform="matrix(-0.893832 0.448402 -0.852628 -0.522519 479.851 488.634)" stroke="#2D5664" stroke-width="1.6"/>
      <line y1="-0.8" x2="374.098" y2="-0.8" transform="matrix(0.305255 -0.952271 0.995179 0.098075 273.377 890.926)" stroke="#106480" stroke-width="1.6"/>
      <line y1="-0.8" x2="374.098" y2="-0.8" transform="matrix(0.305255 -0.952271 0.995179 0.098075 273.377 890.926)" stroke="#106480" stroke-width="1.6"/>
      <line y1="-0.8" x2="374.098" y2="-0.8" transform="matrix(0.305255 -0.952271 0.995179 0.098075 273.377 890.926)" stroke="#106480" stroke-width="1.6"/>
      <line y1="-0.8" x2="374.098" y2="-0.8" transform="matrix(0.305255 -0.952271 0.995179 0.098075 273.377 890.926)" stroke="#106480" stroke-width="1.6"/>
      <line y1="-0.8" x2="374.098" y2="-0.8" transform="matrix(0.305255 -0.952271 0.995179 0.098075 273.377 890.926)" stroke="#106480" stroke-width="1.6"/>
      <line y1="-0.8" x2="374.098" y2="-0.8" transform="matrix(0.305255 -0.952271 0.995179 0.098075 273.377 890.926)" stroke="#106480" stroke-width="1.6"/>
      <line y1="-0.8" x2="310.846" y2="-0.8" transform="matrix(-0.111324 -0.993784 0.999408 -0.0344187 422.177 843.597)" stroke="#106480" stroke-width="1.6"/>
      <line y1="-0.8" x2="310.846" y2="-0.8" transform="matrix(-0.111324 -0.993784 0.999408 -0.0344187 422.177 843.597)" stroke="#106480" stroke-width="1.6"/>
      <line y1="-0.8" x2="310.846" y2="-0.8" transform="matrix(-0.111324 -0.993784 0.999408 -0.0344187 422.177 843.597)" stroke="#106480" stroke-width="1.6"/>
      <line y1="-0.8" x2="310.846" y2="-0.8" transform="matrix(-0.111324 -0.993784 0.999408 -0.0344187 422.177 843.597)" stroke="#106480" stroke-width="1.6"/>
      <line y1="-0.8" x2="310.846" y2="-0.8" transform="matrix(-0.111324 -0.993784 0.999408 -0.0344187 422.177 843.597)" stroke="#106480" stroke-width="1.6"/>
      <line y1="-0.8" x2="310.846" y2="-0.8" transform="matrix(-0.111324 -0.993784 0.999408 -0.0344187 422.177 843.597)" stroke="#106480" stroke-width="1.6"/>
      <line y1="-0.8" x2="83.925" y2="-0.8" transform="matrix(0.67347 -0.739215 0.962941 0.269713 422.177 843.597)" stroke="#106480" stroke-width="1.6"/>
      <line y1="-0.8" x2="83.925" y2="-0.8" transform="matrix(0.67347 -0.739215 0.962941 0.269713 422.177 843.597)" stroke="#106480" stroke-width="1.6"/>
      <line y1="-0.8" x2="83.925" y2="-0.8" transform="matrix(0.67347 -0.739215 0.962941 0.269713 422.177 843.597)" stroke="#106480" stroke-width="1.6"/>
      <line y1="-0.8" x2="83.925" y2="-0.8" transform="matrix(0.67347 -0.739215 0.962941 0.269713 422.177 843.597)" stroke="#106480" stroke-width="1.6"/>
      <line y1="-0.8" x2="83.925" y2="-0.8" transform="matrix(0.67347 -0.739215 0.962941 0.269713 422.177 843.597)" stroke="#106480" stroke-width="1.6"/>
      <line y1="-0.8" x2="83.925" y2="-0.8" transform="matrix(0.67347 -0.739215 0.962941 0.269713 422.177 843.597)" stroke="#106480" stroke-width="1.6"/>
      <line y1="-0.8" x2="82.8906" y2="-0.8" transform="matrix(0.988021 0.154317 -0.452936 0.891543 355.275 464.97)" stroke="#106480" stroke-width="1.6"/>
      <line y1="-0.8" x2="82.8906" y2="-0.8" transform="matrix(0.988021 0.154317 -0.452936 0.891543 355.275 464.97)" stroke="#106480" stroke-width="1.6"/>
      <line y1="-0.8" x2="82.8906" y2="-0.8" transform="matrix(0.988021 0.154317 -0.452936 0.891543 355.275 464.97)" stroke="#106480" stroke-width="1.6"/>
      <line y1="-0.8" x2="82.8906" y2="-0.8" transform="matrix(0.988021 0.154317 -0.452936 0.891543 355.275 464.97)" stroke="#106480" stroke-width="1.6"/>
      <line y1="-0.8" x2="82.8906" y2="-0.8" transform="matrix(0.988021 0.154317 -0.452936 0.891543 355.275 464.97)" stroke="#106480" stroke-width="1.6"/>
      <line y1="-0.8" x2="82.8906" y2="-0.8" transform="matrix(0.988021 0.154317 -0.452936 0.891543 355.275 464.97)" stroke="#106480" stroke-width="1.6"/>
      <line y1="-0.8" x2="35.6462" y2="-0.8" transform="matrix(-0.161797 0.986824 -0.998732 -0.0503423 442.939 442.585)" stroke="#106480" stroke-width="1.6"/>
      <line y1="-0.8" x2="35.6462" y2="-0.8" transform="matrix(-0.161797 0.986824 -0.998732 -0.0503423 442.939 442.585)" stroke="#106480" stroke-width="1.6"/>
      <line y1="-0.8" x2="35.6462" y2="-0.8" transform="matrix(-0.161797 0.986824 -0.998732 -0.0503423 442.939 442.585)" stroke="#106480" stroke-width="1.6"/>
      <line y1="-0.8" x2="35.6462" y2="-0.8" transform="matrix(-0.161797 0.986824 -0.998732 -0.0503423 442.939 442.585)" stroke="#106480" stroke-width="1.6"/>
      <line y1="-0.8" x2="35.6462" y2="-0.8" transform="matrix(-0.161797 0.986824 -0.998732 -0.0503423 442.939 442.585)" stroke="#106480" stroke-width="1.6"/>
      <line y1="-0.8" x2="35.6462" y2="-0.8" transform="matrix(-0.161797 0.986824 -0.998732 -0.0503423 442.939 442.585)" stroke="#106480" stroke-width="1.6"/>
      <line y1="-0.8" x2="90.478" y2="-0.8" transform="matrix(0.968911 -0.247409 0.63893 0.769265 355.275 464.97)" stroke="#106480" stroke-width="1.6"/>
      <line y1="-0.8" x2="90.478" y2="-0.8" transform="matrix(0.968911 -0.247409 0.63893 0.769265 355.275 464.97)" stroke="#106480" stroke-width="1.6"/>
      <line y1="-0.8" x2="90.478" y2="-0.8" transform="matrix(0.968911 -0.247409 0.63893 0.769265 355.275 464.97)" stroke="#106480" stroke-width="1.6"/>
      <line y1="-0.8" x2="90.478" y2="-0.8" transform="matrix(0.968911 -0.247409 0.63893 0.769265 355.275 464.97)" stroke="#106480" stroke-width="1.6"/>
      <line y1="-0.8" x2="90.478" y2="-0.8" transform="matrix(0.968911 -0.247409 0.63893 0.769265 355.275 464.97)" stroke="#106480" stroke-width="1.6"/>
      <line y1="-0.8" x2="90.478" y2="-0.8" transform="matrix(0.968911 -0.247409 0.63893 0.769265 355.275 464.97)" stroke="#106480" stroke-width="1.6"/>
      <line y1="-0.8" x2="75.1601" y2="-0.8" transform="matrix(0.966866 -0.255284 0.651526 0.758627 423.33 369.034)" stroke="#106480" stroke-width="1.6"/>
      <line y1="-0.8" x2="75.1601" y2="-0.8" transform="matrix(0.966866 -0.255284 0.651526 0.758627 423.33 369.034)" stroke="#106480" stroke-width="1.6"/>
      <line y1="-0.8" x2="75.1601" y2="-0.8" transform="matrix(0.966866 -0.255284 0.651526 0.758627 423.33 369.034)" stroke="#106480" stroke-width="1.6"/>
      <line y1="-0.8" x2="75.1601" y2="-0.8" transform="matrix(0.966866 -0.255284 0.651526 0.758627 423.33 369.034)" stroke="#106480" stroke-width="1.6"/>
      <line y1="-0.8" x2="75.1601" y2="-0.8" transform="matrix(0.966866 -0.255284 0.651526 0.758627 423.33 369.034)" stroke="#106480" stroke-width="1.6"/>
      <line y1="-0.8" x2="75.1601" y2="-0.8" transform="matrix(0.966866 -0.255284 0.651526 0.758627 423.33 369.034)" stroke="#106480" stroke-width="1.6"/>
      <line y1="-0.8" x2="68.144" y2="-0.8" transform="matrix(0.964851 0.262797 -0.663131 0.748503 423.33 369.034)" stroke="#106480" stroke-width="1.6"/>
      <line y1="-0.8" x2="68.144" y2="-0.8" transform="matrix(0.964851 0.262797 -0.663131 0.748503 423.33 369.034)" stroke="#106480" stroke-width="1.6"/>
      <line y1="-0.8" x2="68.144" y2="-0.8" transform="matrix(0.964851 0.262797 -0.663131 0.748503 423.33 369.034)" stroke="#106480" stroke-width="1.6"/>
      <line y1="-0.8" x2="68.144" y2="-0.8" transform="matrix(0.964851 0.262797 -0.663131 0.748503 423.33 369.034)" stroke="#106480" stroke-width="1.6"/>
      <line y1="-0.8" x2="68.144" y2="-0.8" transform="matrix(0.964851 0.262797 -0.663131 0.748503 423.33 369.034)" stroke="#106480" stroke-width="1.6"/>
      <line y1="-0.8" x2="68.144" y2="-0.8" transform="matrix(0.964851 0.262797 -0.663131 0.748503 423.33 369.034)" stroke="#106480" stroke-width="1.6"/>
      <line y1="-0.8" x2="95.1552" y2="-0.8" transform="matrix(-0.581865 -0.813286 0.976654 -0.214819 438.326 77.3882)" stroke="#467E91" stroke-width="1.6"/>
      <line y1="-0.8" x2="82.006" y2="-0.8" transform="matrix(0.562636 0.826705 -0.978804 0.204799 433.712 79.3069)" stroke="#467E91" stroke-width="1.6"/>
      <line y1="-0.8" x2="47.7951" y2="-0.8" transform="matrix(0.868825 0.495118 -0.880096 0.474797 438.326 79.3069)" stroke="#467E91" stroke-width="1.6"/>
      <line y1="-0.8" x2="35.8088" y2="-0.8" transform="matrix(0.998564 -0.0535812 0.171936 0.985108 444.093 81.2256)" stroke="#467E91" stroke-width="1.6"/>
      <line y1="-0.8" x2="35.8134" y2="-0.8" transform="matrix(0.93404 -0.35717 0.779354 0.626584 446.4 77.3882)" stroke="#467E91" stroke-width="1.6"/>
      <line y1="-0.8" x2="36.3909" y2="-0.8" transform="matrix(0.943622 0.331025 -0.752062 0.659092 454.474 0.105469)" stroke="#467E91" stroke-width="1.6"/>
      <line y1="-0.7" x2="234.606" y2="-0.7" transform="matrix(0.969885 -0.243562 0.632614 0.774467 11.5349 58.2014)" stroke="url(#paint2_linear_660_1467)" stroke-width="1.4"/>
      <line y1="-0.7" x2="137.493" y2="-0.7" transform="matrix(0.914451 -0.404697 0.82128 0.570526 11.5349 58.2014)" stroke="url(#paint3_linear_660_1467)" stroke-width="1.4"/>
      <line y1="-0.8" x2="192.362" y2="-0.8" transform="matrix(-0.477493 -0.878636 0.986328 -0.164791 252.074 172.579)" stroke="#3B7183" stroke-width="1.6"/>
      <ellipse cx="253.768" cy="176.522" rx="10.8727" ry="19.6093" transform="rotate(-90 253.768 176.522)" fill="#1F85A6"/>
      <ellipse cx="387.572" cy="534.684" rx="10.8727" ry="19.6093" transform="rotate(-90 387.572 534.684)" fill="#1F85A6"/>
      <ellipse cx="377.191" cy="279.494" rx="10.8727" ry="19.6093" transform="rotate(-90 377.191 279.494)" fill="#1F85A6"/>
      <ellipse cx="11.5349" cy="58.2014" rx="6.39573" ry="11.5349" transform="rotate(-90 11.5349 58.2014)" fill="#1F85A6"/>
      <ellipse cx="355.274" cy="464.97" rx="5.75616" ry="10.3814" transform="rotate(-90 355.274 464.97)" fill="#1F85A6"/>
      <ellipse cx="438.325" cy="79.3072" rx="7.03531" ry="12.6884" transform="rotate(-90 438.325 79.3072)" fill="#1F85A6"/>
      <ellipse cx="284.912" cy="122.158" rx="4.47701" ry="8.07442" transform="rotate(-90 284.912 122.158)" fill="#1F85A6"/>
      <ellipse cx="423.33" cy="367.755" rx="4.47701" ry="8.07442" transform="rotate(-90 423.33 367.755)" fill="#1F85A6"/>
      <ellipse cx="436.019" cy="477.761" rx="3.83744" ry="6.92093" transform="rotate(-90 436.019 477.761)" fill="#1F85A6"/>
      <ellipse cx="442.939" cy="442.585" rx="3.19787" ry="5.76744" transform="rotate(-90 442.939 442.585)" fill="#4EADCC"/>
      <ellipse cx="284.911" cy="93.3782" rx="2.55829" ry="4.61395" transform="rotate(-90 284.911 93.3782)" fill="#4EADCC"/>
      <ellipse cx="191.479" cy="179.72" rx="1.91872" ry="3.46046" transform="rotate(-90 191.479 179.72)" fill="#4EADCC"/>
      <ellipse cx="305.675" cy="159.254" rx="1.91872" ry="3.46046" transform="rotate(-90 305.675 159.254)" fill="#4EADCC"/>
      <ellipse cx="339.125" cy="198.907" rx="3.19787" ry="5.76744" transform="rotate(-90 339.125 198.907)" fill="#4EADCC"/>
      <ellipse cx="215.702" cy="247.515" rx="2.55829" ry="4.61395" transform="rotate(-90 215.702 247.515)" fill="#1F85A6"/>
    </g>
    <path d="M57.8594 405.406C57.8594 404.833 58.0625 404.344 58.4688 403.938C58.875 403.521 59.3646 403.312 59.9375 403.312C60.5104 403.312 61 403.521 61.4062 403.938C61.8125 404.344 62.0156 404.833 62.0156 405.406C62.0156 405.979 61.8125 406.469 61.4062 406.875C61 407.281 60.5104 407.484 59.9375 407.484C59.3542 407.484 58.8594 407.286 58.4531 406.891C58.0573 406.495 57.8594 406 57.8594 405.406ZM58.4531 386H61.4844L61.25 400.75H58.7031L58.4531 386ZM66.4062 404.234C67.6146 404.526 68.7031 404.672 69.6719 404.672C73.2865 404.672 75.0938 403.807 75.0938 402.078C75.0938 401.599 74.6198 400.245 73.6719 398.016L71.7969 393.609L74.3125 392.453L77.2969 400.016C78.5156 403.13 79.7552 404.688 81.0156 404.688H81.5V407.5H81.0156C79.2969 407.5 77.9323 406.656 76.9219 404.969C75.5052 406.646 73.1667 407.484 69.9062 407.484C68.6354 407.484 67.4688 407.354 66.4062 407.094V404.234ZM85.3906 412.234L87.5781 410.047L89.7812 412.234L87.5781 414.453L85.3906 412.234ZM80.2031 412.234L82.3906 410.047L84.5938 412.234L82.3906 414.453L80.2031 412.234ZM89.4375 395.969C89.9375 397.646 90.1875 399.323 90.1875 401C90.1875 403.281 89.625 404.938 88.5 405.969C87.3854 406.99 85.6302 407.5 83.2344 407.5H80.9219V404.688H83.2344C84.0469 404.688 84.7031 404.641 85.2031 404.547C85.7135 404.453 86.151 404.276 86.5156 404.016C86.8802 403.745 87.1354 403.375 87.2812 402.906C87.4375 402.427 87.5156 401.807 87.5156 401.047C87.5156 399.672 87.3229 398.188 86.9375 396.594L89.4375 395.969ZM93.25 404.234C94.4583 404.526 95.5469 404.672 96.5156 404.672C100.13 404.672 101.938 403.807 101.938 402.078C101.938 401.599 101.464 400.245 100.516 398.016L98.6406 393.609L101.156 392.453L104.141 400.016C105.359 403.13 106.599 404.688 107.859 404.688H108.344V407.5H107.859C106.141 407.5 104.776 406.656 103.766 404.969C102.349 406.646 100.01 407.484 96.75 407.484C95.4792 407.484 94.3125 407.354 93.25 407.094V404.234ZM113.969 402.719C115.354 404.312 116.672 405.109 117.922 405.109C119.401 405.109 120.141 404.385 120.141 402.938C120.141 401.896 119.885 401.057 119.375 400.422C118.865 399.776 118.172 399.453 117.297 399.453C115.849 399.453 114.74 400.542 113.969 402.719ZM112.641 405.25C111.328 406.75 109.87 407.5 108.266 407.5H107.781V404.688H108.188C108.635 404.688 109.052 404.589 109.438 404.391C109.823 404.182 110.167 403.891 110.469 403.516C110.781 403.13 111.042 402.755 111.25 402.391C111.458 402.026 111.677 401.589 111.906 401.078C113.281 398.057 115.057 396.547 117.234 396.547C118.859 396.547 120.182 397.146 121.203 398.344C122.234 399.542 122.75 400.995 122.75 402.703C122.75 404.339 122.354 405.604 121.562 406.5C120.771 407.396 119.63 407.844 118.141 407.844C117.151 407.844 116.214 407.63 115.328 407.203C114.453 406.776 113.557 406.125 112.641 405.25ZM127.984 388.031H130.625V407.484H127.984V388.031ZM127.812 384.984C126.896 384.984 125.979 385.536 125.062 386.641L123.484 385.062C124.63 383.438 125.896 382.62 127.281 382.609C127.719 382.609 128.328 382.719 129.109 382.938C129.901 383.146 130.516 383.25 130.953 383.25C131.786 383.25 132.714 382.995 133.734 382.484L134.766 384.547C134.411 384.766 134.047 384.953 133.672 385.109C133.307 385.255 132.927 385.365 132.531 385.438C132.146 385.51 131.755 385.547 131.359 385.547C130.932 385.547 130.333 385.453 129.562 385.266C128.802 385.078 128.219 384.984 127.812 384.984ZM168.125 389L170.188 386.938L172.266 389L170.188 391.078L168.125 389ZM170.812 393.094L172.875 391.031L174.953 393.094L172.875 395.172L170.812 393.094ZM165.5 393.094L167.562 391.031L169.641 393.094L167.562 395.172L165.5 393.094ZM166.859 407.5C165.661 407.5 164.677 407.198 163.906 406.594C163.865 409.552 162.984 411.797 161.266 413.328C159.557 414.859 157.203 415.625 154.203 415.625C147.714 415.625 144.469 412.625 144.469 406.625C144.469 404.438 144.938 402.203 145.875 399.922L148.297 400.906C147.536 402.917 147.156 404.797 147.156 406.547C147.156 410.797 149.542 412.922 154.312 412.922C158.979 412.922 161.318 410.594 161.328 405.938C161.328 404.052 160.859 402.13 159.922 400.172L162.562 399.266L163.484 402.125C164.026 403.823 165.161 404.677 166.891 404.688C167.901 404.688 168.635 404.417 169.094 403.875C169.552 403.323 169.781 402.505 169.781 401.422C169.781 400.922 169.729 399.995 169.625 398.641L172.203 398.328L172.453 401.859C172.516 402.714 172.75 403.401 173.156 403.922C173.562 404.432 174.151 404.688 174.922 404.688C176.37 404.688 177.094 403.531 177.094 401.219C177.094 400.104 176.865 398.729 176.406 397.094L179.031 396.391C179.531 397.984 179.781 399.516 179.781 400.984C179.781 401.911 179.693 402.755 179.516 403.516C179.339 404.276 179.062 404.964 178.688 405.578C178.323 406.182 177.823 406.656 177.188 407C176.552 407.333 175.802 407.5 174.938 407.5C173.156 407.5 171.896 406.755 171.156 405.266C170.083 406.755 168.651 407.5 166.859 407.5ZM188.062 396.25C191.302 396.25 193.109 399.068 193.484 404.703H195.281V407.5L193.297 407.484C192.891 409.651 191.901 411.438 190.328 412.844C188.766 414.26 186.635 415.229 183.938 415.75L183 413.344C185.198 412.927 186.958 412.214 188.281 411.203C189.604 410.203 190.464 408.969 190.859 407.5H188.531C184.74 407.5 182.844 405.958 182.844 402.875C182.844 401.062 183.339 399.505 184.328 398.203C185.328 396.901 186.573 396.25 188.062 396.25ZM190.938 404.688C190.698 400.99 189.667 399.141 187.844 399.141C187.156 399.141 186.578 399.495 186.109 400.203C185.651 400.901 185.422 401.714 185.422 402.641C185.422 404.005 186.406 404.688 188.375 404.688H190.938ZM201.703 389.812L203.969 387.547L206.266 389.828L203.984 392.094L201.703 389.812ZM194.703 407.5V404.688H197.547C199.328 404.688 200.844 404.479 202.094 404.062C202.635 403.885 203.276 403.625 204.016 403.281C204.766 402.938 205.385 402.641 205.875 402.391C206.365 402.141 207.271 401.677 208.594 401L209.812 400.359C209.688 400.318 209.531 400.26 209.344 400.188C209.167 400.104 208.854 399.969 208.406 399.781C207.958 399.594 207.464 399.391 206.922 399.172C205.693 398.672 204.771 398.318 204.156 398.109C203.542 397.891 203.068 397.781 202.734 397.781C202.161 397.781 201.594 397.948 201.031 398.281C200.479 398.615 200 399.042 199.594 399.562L199.172 400.109L196.812 398.938L197.047 398.531C197.724 397.438 198.552 396.578 199.531 395.953C200.521 395.318 201.594 395 202.75 395C203.833 395 205.411 395.5 207.484 396.5C209.12 397.292 210.469 397.87 211.531 398.234C212.594 398.599 213.573 398.802 214.469 398.844L214.438 401.5C213.823 401.573 213.078 401.792 212.203 402.156C211.339 402.521 210.089 403.135 208.453 404C205.849 405.375 203.969 406.266 202.812 406.672C201.24 407.224 199.422 407.5 197.359 407.5H194.703Z" fill="white"/>
    <path d="M242.297 405.68C242.297 404.82 242.167 403.824 241.906 402.691C241.659 401.559 241.307 400.452 240.852 399.371L240.52 398.609L241.301 398.336L244.465 397.184L245.227 396.91L245.48 397.672L246.672 401.422C246.867 402.047 247.089 402.542 247.336 402.906C247.596 403.271 247.889 403.531 248.215 403.688C248.553 403.844 248.964 403.922 249.445 403.922H250.188V404.703V408.219V409H249.66C248.449 409 247.512 408.857 246.848 408.57C246.366 411.396 245.038 413.72 242.863 415.543C240.702 417.366 237.798 418.616 234.152 419.293L233.508 419.41L233.273 418.805L232.102 415.797L231.75 414.918L232.668 414.742C235.936 414.117 238.352 413.056 239.914 411.559C241.49 410.074 242.284 408.115 242.297 405.68ZM254.777 414.664L257.512 411.93L257.766 411.695L258.02 411.93L260.773 414.664L261.008 414.918L260.773 415.172L258.02 417.945L257.766 418.199L257.512 417.945L254.777 415.172L254.543 414.918L254.777 414.664ZM248.293 414.664L251.027 411.93L251.281 411.695L251.535 411.93L254.289 414.664L254.523 414.918L254.289 415.172L251.535 417.945L251.281 418.199L251.027 417.945L248.293 415.172L248.059 414.918L248.293 414.664ZM260.832 393.531C261.483 395.732 261.809 397.893 261.809 400.016C261.809 403.062 261.021 405.322 259.445 406.793C257.87 408.264 255.5 409 252.336 409H249.445V408.219V404.703V403.922H252.336C253.312 403.922 254.061 403.883 254.582 403.805C255.116 403.727 255.572 403.551 255.949 403.277C256.34 402.991 256.594 402.6 256.711 402.105C256.841 401.611 256.906 400.934 256.906 400.074C256.906 398.46 256.672 396.669 256.203 394.703L256.027 393.961L256.77 393.766L259.895 392.984L260.617 392.809L260.832 393.531ZM265.91 385.836H269.211H269.992V386.5V408.277V408.941H269.211H265.91H265.129V408.277V386.5V385.836H265.91ZM264.953 381.5C264.549 381.109 264.257 380.667 264.074 380.172C263.892 379.677 263.801 379.091 263.801 378.414C263.801 377.125 264.224 376.096 265.07 375.328C265.93 374.547 267.01 374.156 268.312 374.156C268.638 374.156 268.957 374.189 269.27 374.254C269.595 374.319 269.901 374.417 270.188 374.547C270.487 374.664 270.78 374.807 271.066 374.977L271.164 375.035V375.152L271.184 377.477V377.828L270.891 377.652C270.63 377.483 270.37 377.353 270.109 377.262C269.862 377.158 269.608 377.079 269.348 377.027C269.1 376.975 268.846 376.949 268.586 376.949C267.154 376.949 266.438 377.522 266.438 378.668C266.438 378.928 266.49 379.163 266.594 379.371C266.698 379.566 266.867 379.755 267.102 379.938C267.336 380.107 267.648 380.263 268.039 380.406C268.169 380.458 268.273 380.484 268.352 380.484C268.378 380.484 268.417 380.478 268.469 380.465C268.794 380.4 269.257 380.309 269.855 380.191C270.454 380.074 270.858 379.99 271.066 379.938L271.301 379.898V380.133V382.398V382.555L271.145 382.594L263.391 384.449L263.156 384.508V384.273V382.066V381.91L263.312 381.871L264.953 381.5ZM281.672 397.633C282.779 400.38 283.332 403.03 283.332 405.582C283.332 409.306 282.232 412.32 280.031 414.625C277.831 416.93 274.602 418.486 270.344 419.293L269.719 419.43L269.484 418.824L268.312 415.816L267.961 414.938L268.898 414.762C271.073 414.345 272.87 413.727 274.289 412.906C275.721 412.099 276.776 411.096 277.453 409.898C278.143 408.701 278.495 407.294 278.508 405.68C278.508 404.82 278.384 403.824 278.137 402.691C277.889 401.559 277.531 400.452 277.062 399.371L276.75 398.609L277.531 398.316L280.695 397.184L281.398 396.93L281.672 397.633ZM296.516 400.172C296.516 396.07 299.784 392.945 306.32 390.797L306.281 390.582L306.184 389.859L306.906 389.703L310.012 389.059L310.832 388.883L310.949 389.703L312.551 401.227C312.668 402.151 312.961 402.835 313.43 403.277C313.898 403.707 314.569 403.922 315.441 403.922H316.027V404.703V408.219V409H315.363C313.671 409 312.251 408.648 311.105 407.945C309.973 407.242 309.152 406.227 308.645 404.898C307.16 405.914 305.546 406.422 303.801 406.422C302.824 406.422 301.906 406.298 301.047 406.051C300.201 405.803 299.432 405.432 298.742 404.938C298.052 404.443 297.505 403.792 297.102 402.984C296.711 402.164 296.516 401.227 296.516 400.172ZM307.082 395.562C303.345 397.034 301.477 398.492 301.477 399.938C301.477 400.497 301.639 400.914 301.965 401.188C302.303 401.448 302.876 401.578 303.684 401.578C304.686 401.578 305.572 401.311 306.34 400.777C307.121 400.23 307.512 399.573 307.512 398.805C307.512 398.453 307.486 398.121 307.434 397.809L307.082 395.562ZM317.863 387.652L320.695 384.82L320.949 384.566L321.203 384.82L324.055 387.672L324.309 387.926L324.055 388.18L321.223 391.012L320.969 391.266L320.715 391.012L317.863 388.16L317.609 387.906L317.863 387.652ZM325.109 393.531C325.76 395.732 326.086 397.893 326.086 400.016C326.086 402.828 325.357 405.035 323.898 406.637C322.44 408.225 320.337 409.02 317.59 409.02H315.285V408.238V404.723V403.941H317.59C318.905 403.941 319.829 403.661 320.363 403.102C320.91 402.542 321.184 401.533 321.184 400.074C321.184 398.46 320.949 396.669 320.48 394.703L320.305 393.961L321.047 393.766L324.172 392.984L324.895 392.809L325.109 393.531ZM337.414 409C334.784 409 332.779 408.284 331.398 406.852C330.018 405.419 329.328 403.238 329.328 400.309V382.711V381.93H330.109H333.41H334.191V382.711V400.328C334.191 401.747 334.432 402.704 334.914 403.199C335.409 403.681 336.242 403.922 337.414 403.922H337.883V404.703V408.219V409H337.414ZM345.812 402.066C347.271 403.655 348.618 404.449 349.855 404.449C350.598 404.449 351.112 404.306 351.398 404.02C351.698 403.733 351.848 403.232 351.848 402.516C351.848 401.383 351.594 400.504 351.086 399.879C350.591 399.254 349.921 398.941 349.074 398.941C347.733 398.941 346.646 399.983 345.812 402.066ZM343.293 406.5C341.639 408.167 339.803 409 337.785 409H337.18V408.219V404.703V403.922H337.688C338.117 403.922 338.521 403.818 338.898 403.609C339.276 403.401 339.628 403.102 339.953 402.711C340.279 402.307 340.565 401.884 340.812 401.441C341.073 400.999 341.346 400.471 341.633 399.859C343.482 395.784 345.936 393.746 348.996 393.746C350.507 393.746 351.854 394.143 353.039 394.938C354.237 395.732 355.142 396.773 355.754 398.062C356.366 399.339 356.672 400.725 356.672 402.223C356.672 404.436 356.099 406.194 354.953 407.496C353.807 408.785 352.199 409.43 350.129 409.43C347.772 409.43 345.493 408.453 343.293 406.5ZM368 409C365.37 409 363.365 408.284 361.984 406.852C360.604 405.419 359.914 403.238 359.914 400.309V382.711V381.93H360.695H363.996H364.777V382.711V400.328C364.777 401.747 365.018 402.704 365.5 403.199C365.995 403.681 366.828 403.922 368 403.922H368.469V404.703V408.219V409H368ZM390.637 403.922C391.249 403.922 391.724 403.655 392.062 403.121C392.401 402.587 392.57 401.669 392.57 400.367C392.57 399.13 392.29 397.483 391.73 395.426L391.535 394.664L392.297 394.449L395.578 393.57L396.301 393.375L396.516 394.098C397.167 396.168 397.492 398.16 397.492 400.074C397.492 401.285 397.368 402.405 397.121 403.434C396.887 404.449 396.509 405.387 395.988 406.246C395.48 407.092 394.771 407.763 393.859 408.258C392.948 408.753 391.88 409 390.656 409C388.547 409 386.932 408.258 385.812 406.773C384.406 408.258 382.648 409 380.539 409C378.169 409 376.424 408.277 375.305 406.832C373.951 408.277 371.874 409 369.074 409H367.746V408.219V404.703V403.922H369.113C370.611 403.922 371.639 403.694 372.199 403.238C372.772 402.783 373.059 401.91 373.059 400.621C373.059 399.905 372.993 398.766 372.863 397.203L372.805 396.461L373.547 396.363L376.77 395.973L377.59 395.875L377.648 396.695L377.961 401.109C378.104 402.984 378.977 403.922 380.578 403.922C381.62 403.922 382.349 403.674 382.766 403.18C383.195 402.672 383.41 401.819 383.41 400.621C383.41 399.944 383.345 398.805 383.215 397.203L383.156 396.461L383.898 396.363L387.121 395.973L387.941 395.875L388 396.695L388.312 401.109C388.43 402.984 389.204 403.922 390.637 403.922Z" fill="#FFB100"/>
    <path d="M408.531 401.062C408.531 397.99 411.172 395.635 416.453 394L416.344 393.297L418.828 392.781L420.109 401.984C420.224 402.849 420.531 403.516 421.031 403.984C421.531 404.453 422.203 404.688 423.047 404.688H423.516V407.5H422.984C420.182 407.5 418.505 406.266 417.953 403.797C416.682 404.891 415.276 405.438 413.734 405.438C412.214 405.438 410.964 405.073 409.984 404.344C409.016 403.604 408.531 402.51 408.531 401.062ZM416.859 396.516C414.974 397.214 413.568 397.917 412.641 398.625C411.714 399.323 411.25 400.073 411.25 400.875C411.25 401.51 411.453 401.995 411.859 402.328C412.276 402.651 412.87 402.812 413.641 402.812C414.578 402.812 415.427 402.552 416.188 402.031C416.948 401.5 417.328 400.812 417.328 399.969C417.328 399.656 417.307 399.359 417.266 399.078L416.859 396.516ZM424.141 412.234L426.406 409.969L428.703 412.25L426.422 414.516L424.141 412.234ZM430.188 395.969C430.688 397.646 430.938 399.323 430.938 401C430.938 403.104 430.417 404.714 429.375 405.828C428.333 406.943 426.797 407.5 424.766 407.5H422.922V404.688H424.766C425.984 404.688 426.87 404.406 427.422 403.844C427.984 403.271 428.266 402.339 428.266 401.047C428.266 399.672 428.073 398.188 427.688 396.594L430.188 395.969Z" fill="white"/>
  </g>
  <defs>
    <linearGradient id="paint0_linear_660_1467" x1="1.27902" y1="0.813907" x2="125.735" y2="1.16083" gradientUnits="userSpaceOnUse">
      <stop stop-color="#1F85A6"/>
      <stop offset="1" stop-color="#3B7183"/>
    </linearGradient>
    <linearGradient id="paint1_linear_660_1467" x1="1.34143" y1="0.813907" x2="131.871" y2="1.19552" gradientUnits="userSpaceOnUse">
      <stop stop-color="#1F85A6"/>
      <stop offset="1" stop-color="#3B7183"/>
    </linearGradient>
    <linearGradient id="paint2_linear_660_1467" x1="117.303" y1="0" x2="117.303" y2="1" gradientUnits="userSpaceOnUse">
      <stop stop-color="#1F85A6"/>
      <stop offset="1" stop-color="#C0F0FF"/>
    </linearGradient>
    <linearGradient id="paint3_linear_660_1467" x1="68.7463" y1="0" x2="68.7463" y2="1" gradientUnits="userSpaceOnUse">
      <stop stop-color="#4EADCC"/>
      <stop offset="1" stop-color="#C0F0FF"/>
    </linearGradient>
    <clipPath id="clip0_660_1467">
      <path d="M0 7.99999C0 3.58171 3.58172 0 8 0H496V800H7.99999C3.58171 800 0 796.418 0 792V7.99999Z" fill="white"/>
    </clipPath>
  </defs>
</svg>
